<svg xmlns="http://www.w3.org/2000/svg" width="1200" height="800" version="1.1" viewBox="0 0 1200 800"><path fill="#000" fill-rule="evenodd" stroke="none" d="M 0 133.501 L 0 267.002 600.250 266.751 L 1200.500 266.500 1200.754 133.250 L 1201.007 0 600.504 0 L 0 0 0 133.501 M 0.486 134 C 0.486 207.425, 0.605 237.463, 0.750 200.750 C 0.895 164.038, 0.895 103.963, 0.750 67.250 C 0.605 30.538, 0.486 60.575, 0.486 134 M 577.597 278.607 C 534.274 286.430, 497.112 318.719, 483.020 360.782 C 478.862 373.192, 477 385.323, 477 400 C 477 407.008, 477.696 416.731, 478.548 421.615 C 487.337 472.015, 527.985 512.663, 578.385 521.452 C 589.762 523.436, 610.238 523.436, 621.615 521.452 C 672.015 512.663, 712.663 472.015, 721.452 421.615 C 723.436 410.238, 723.436 389.762, 721.452 378.385 C 712.658 327.957, 672.043 287.342, 621.615 278.548 C 610.593 276.626, 588.402 276.655, 577.597 278.607 M 595.300 293.737 C 592.219 294.011, 590.936 294.628, 590.483 296.053 C 589.529 299.061, 585.317 299.647, 582.651 297.142 L 580.413 295.040 572.668 297.145 C 565.602 299.066, 564.798 299.547, 563.512 302.625 C 562.024 306.186, 558.616 307.216, 556.227 304.827 C 554.859 303.459, 552.474 304.343, 544.279 309.256 C 539.990 311.828, 539.156 312.773, 539.602 314.550 C 540.415 317.790, 537.399 320.330, 533.631 319.576 C 530.927 319.035, 529.949 319.603, 524.792 324.706 C 519.593 329.850, 519.053 330.768, 519.579 333.568 C 520.301 337.420, 517.802 340.418, 514.550 339.602 C 512.773 339.156, 511.828 339.990, 509.256 344.279 C 504.343 352.474, 503.459 354.859, 504.827 356.227 C 507.216 358.616, 506.186 362.024, 502.625 363.512 C 499.547 364.798, 499.066 365.602, 497.145 372.668 L 495.040 380.413 497.142 382.651 C 499.632 385.302, 499.066 389.527, 496.095 390.470 C 494.684 390.918, 494.104 392.220, 493.841 395.536 C 493.187 403.751, 494.012 408.869, 496.095 409.530 C 499.066 410.473, 499.632 414.698, 497.142 417.349 L 495.040 419.587 497.145 427.332 C 499.066 434.398, 499.547 435.202, 502.625 436.488 C 506.186 437.976, 507.216 441.384, 504.827 443.773 C 503.459 445.141, 504.343 447.526, 509.256 455.721 C 511.828 460.010, 512.773 460.844, 514.550 460.398 C 517.802 459.582, 520.301 462.580, 519.579 466.432 C 519.053 469.232, 519.593 470.150, 524.792 475.294 C 529.949 480.397, 530.927 480.965, 533.631 480.424 C 537.399 479.670, 540.415 482.210, 539.602 485.450 C 539.156 487.227, 539.990 488.172, 544.279 490.744 C 552.474 495.657, 554.859 496.541, 556.227 495.173 C 558.616 492.784, 562.024 493.814, 563.512 497.375 C 564.798 500.453, 565.602 500.934, 572.668 502.855 L 580.413 504.960 582.651 502.858 C 585.302 500.368, 589.527 500.934, 590.470 503.905 C 590.918 505.316, 592.220 505.896, 595.536 506.159 C 603.751 506.813, 608.869 505.988, 609.530 503.905 C 610.478 500.919, 614.700 500.369, 617.375 502.882 L 619.639 505.009 627.557 502.755 C 633.701 501.005, 635.558 500.052, 635.845 498.500 C 636.628 494.270, 641.025 492.425, 643.773 495.173 C 645.141 496.541, 647.526 495.657, 655.721 490.744 C 660.010 488.172, 660.844 487.227, 660.398 485.450 C 659.585 482.210, 662.601 479.670, 666.369 480.424 C 669.073 480.965, 670.051 480.397, 675.208 475.294 C 680.407 470.150, 680.947 469.232, 680.421 466.432 C 679.699 462.580, 682.198 459.582, 685.450 460.398 C 687.227 460.844, 688.172 460.010, 690.744 455.721 C 695.657 447.526, 696.541 445.141, 695.173 443.773 C 692.425 441.025, 694.270 436.628, 698.500 435.845 C 700.052 435.558, 701.005 433.701, 702.755 427.557 L 705.009 419.639 702.882 417.375 C 700.336 414.664, 700.932 410.474, 704.002 409.499 C 705.801 408.928, 706 407.984, 706 400 C 706 392.016, 705.801 391.072, 704.002 390.501 C 700.946 389.531, 700.335 385.337, 702.858 382.651 L 704.960 380.413 702.855 372.668 C 700.934 365.602, 700.453 364.798, 697.375 363.512 C 693.814 362.024, 692.784 358.616, 695.173 356.227 C 696.541 354.859, 695.657 352.474, 690.744 344.279 C 688.172 339.990, 687.227 339.156, 685.450 339.602 C 682.198 340.418, 679.699 337.420, 680.421 333.568 C 680.947 330.768, 680.407 329.850, 675.208 324.706 C 670.051 319.603, 669.073 319.035, 666.369 319.576 C 662.601 320.330, 659.585 317.790, 660.398 314.550 C 660.844 312.773, 660.010 311.828, 655.721 309.256 C 647.526 304.343, 645.141 303.459, 643.773 304.827 C 641.384 307.216, 637.976 306.186, 636.488 302.625 C 635.202 299.547, 634.398 299.066, 627.332 297.145 L 619.587 295.040 617.349 297.142 C 614.663 299.665, 610.469 299.054, 609.499 295.998 C 609.032 294.524, 607.986 294, 605.514 294 C 603.671 294, 601.564 293.857, 600.832 293.682 C 600.099 293.506, 597.610 293.531, 595.300 293.737 M 597.633 328.393 C 596.146 353.043, 596.057 359.419, 597.086 367.904 C 598.204 377.129, 598.003 380.336, 596.407 378.740 C 596.081 378.414, 595.167 373.469, 594.375 367.752 C 593.248 359.604, 590.793 351.102, 583.021 328.428 C 577.566 312.518, 573.081 299.746, 573.052 300.047 C 573.023 300.348, 575.666 313.883, 578.925 330.125 C 584.527 358.047, 585.821 362.621, 592.682 378.750 C 592.975 379.438, 592.563 380, 591.767 380 C 590.887 380, 588.685 376.172, 586.153 370.242 C 583.227 363.390, 576.927 352.895, 564.994 334.992 C 555.648 320.972, 548.001 309.841, 548.001 310.257 C 548 310.674, 554.131 323.274, 561.625 338.257 C 571.534 358.071, 576.988 367.754, 581.625 373.766 C 585.131 378.312, 588 382.250, 588 382.516 C 588 382.782, 587.373 383, 586.606 383 C 585.839 383, 582.577 379.555, 579.356 375.344 C 574.367 368.822, 555.622 351.401, 528.500 328.080 L 525.500 325.500 528.082 328.500 C 551.421 355.620, 568.863 374.384, 575.359 379.360 C 579.562 382.578, 583 385.866, 583 386.665 C 583 388.446, 582.561 388.195, 572.936 380.915 C 568.027 377.202, 555.831 370.420, 538.193 361.597 C 523.245 354.118, 510.674 348, 510.257 348.001 C 509.841 348.001, 520.972 355.648, 534.992 364.994 C 552.895 376.927, 563.390 383.227, 570.242 386.153 C 576.172 388.685, 580 390.887, 580 391.767 C 580 392.563, 579.438 392.975, 578.750 392.682 C 562.621 385.821, 558.047 384.527, 530.125 378.925 C 513.883 375.666, 500.348 373.029, 500.047 373.064 C 499.746 373.100, 511.875 377.386, 527 382.589 C 547.938 389.792, 557.333 392.511, 566.374 393.982 C 572.905 395.046, 578.493 396.160, 578.791 396.458 C 580.335 398.001, 577.030 398.192, 567.904 397.086 C 559.419 396.057, 553.043 396.146, 528.393 397.633 C 512.227 398.608, 499 399.673, 499 400 C 499 400.327, 512.227 401.392, 528.393 402.367 C 553.043 403.854, 559.419 403.943, 567.904 402.914 C 577.030 401.808, 580.335 401.999, 578.791 403.542 C 578.493 403.840, 572.905 404.954, 566.374 406.018 C 557.333 407.489, 547.938 410.208, 527 417.411 C 511.875 422.614, 499.746 426.900, 500.047 426.936 C 500.348 426.971, 513.883 424.334, 530.125 421.075 C 558.047 415.473, 562.621 414.179, 578.750 407.318 C 579.438 407.025, 580 407.437, 580 408.233 C 580 409.113, 576.172 411.315, 570.242 413.847 C 563.390 416.773, 552.895 423.073, 534.992 435.006 C 520.972 444.352, 509.841 451.999, 510.257 451.999 C 510.674 452, 523.245 445.882, 538.193 438.403 C 555.831 429.580, 568.027 422.798, 572.936 419.085 C 582.561 411.805, 583 411.554, 583 413.335 C 583 414.134, 579.562 417.422, 575.359 420.640 C 568.863 425.616, 551.421 444.380, 528.082 471.500 L 525.500 474.500 528.500 471.920 C 555.622 448.599, 574.367 431.178, 579.356 424.656 C 582.577 420.445, 585.839 417, 586.606 417 C 587.373 417, 588 417.218, 588 417.484 C 588 417.750, 585.131 421.688, 581.625 426.234 C 576.988 432.246, 571.534 441.929, 561.625 461.743 C 554.131 476.726, 548 489.326, 548.001 489.743 C 548.001 490.159, 555.648 479.028, 564.994 465.008 C 576.927 447.105, 583.227 436.610, 586.153 429.758 C 588.685 423.828, 590.887 420, 591.767 420 C 592.563 420, 592.975 420.563, 592.682 421.250 C 585.821 437.379, 584.527 441.953, 578.925 469.875 C 575.666 486.117, 573.024 499.652, 573.053 499.953 C 573.083 500.254, 577.572 487.450, 583.029 471.500 C 590.758 448.912, 593.268 440.217, 594.383 432.176 C 595.170 426.498, 596.081 421.586, 596.407 421.260 C 598.003 419.664, 598.204 422.871, 597.086 432.096 C 596.057 440.581, 596.146 446.957, 597.633 471.607 C 598.608 487.773, 599.673 501, 600 501 C 600.327 501, 601.392 487.773, 602.367 471.607 C 603.854 446.957, 603.943 440.581, 602.914 432.096 C 601.796 422.871, 601.997 419.664, 603.593 421.260 C 603.919 421.586, 604.833 426.531, 605.625 432.248 C 606.752 440.396, 609.207 448.898, 616.979 471.572 C 622.434 487.482, 626.919 500.254, 626.948 499.953 C 626.977 499.652, 624.334 486.117, 621.075 469.875 C 615.473 441.953, 614.179 437.379, 607.318 421.250 C 607.025 420.563, 607.437 420, 608.233 420 C 609.113 420, 611.315 423.828, 613.847 429.758 C 616.773 436.610, 623.073 447.105, 635.006 465.008 C 644.352 479.028, 651.999 490.159, 651.999 489.743 C 652 489.326, 645.882 476.755, 638.403 461.807 C 629.580 444.169, 622.798 431.973, 619.085 427.064 C 611.805 417.439, 611.554 417, 613.335 417 C 614.134 417, 617.423 420.445, 620.644 424.656 C 625.633 431.178, 644.378 448.599, 671.500 471.920 L 674.500 474.500 671.920 471.500 C 648.599 444.378, 631.178 425.633, 624.656 420.644 C 620.445 417.423, 617 414.161, 617 413.394 C 617 412.627, 617.218 412, 617.484 412 C 617.750 412, 621.688 414.869, 626.234 418.375 C 632.246 423.012, 641.929 428.466, 661.743 438.375 C 676.726 445.869, 689.326 452, 689.743 451.999 C 690.159 451.999, 679.028 444.352, 665.008 435.006 C 647.105 423.073, 636.610 416.773, 629.758 413.847 C 624.339 411.534, 620 409.085, 620 408.340 C 620 406.582, 619.380 406.423, 630.421 411.018 C 638.111 414.218, 646.100 416.253, 669.698 421.023 C 685.991 424.317, 699.445 426.888, 699.596 426.738 C 699.746 426.587, 686.962 422.085, 671.185 416.733 C 648.937 409.186, 640.182 406.685, 632.171 405.589 C 626.490 404.811, 621.577 403.911, 621.254 403.588 C 619.620 401.954, 623.015 401.732, 632.171 402.875 C 640.742 403.944, 646.846 403.868, 672.143 402.376 C 688.564 401.407, 702 400.342, 702 400.010 C 702 399.678, 688.817 398.611, 672.705 397.639 C 647.950 396.145, 641.752 396.064, 632.717 397.114 C 623.012 398.242, 619.631 398.035, 621.254 396.412 C 621.577 396.089, 626.490 395.189, 632.171 394.411 C 640.182 393.315, 648.937 390.814, 671.185 383.267 C 686.962 377.915, 699.746 373.413, 699.596 373.262 C 699.445 373.112, 685.946 375.692, 669.598 378.997 C 647.232 383.518, 637.724 385.899, 631.187 388.616 C 626.409 390.601, 621.938 392.448, 621.250 392.720 C 620.563 392.992, 620 392.563, 620 391.767 C 620 390.887, 623.828 388.685, 629.758 386.153 C 636.610 383.227, 647.105 376.927, 665.008 364.994 C 679.028 355.648, 690.159 348.001, 689.743 348.001 C 689.326 348, 676.726 354.131, 661.743 361.625 C 641.929 371.534, 632.246 376.988, 626.234 381.625 C 621.688 385.131, 617.750 388, 617.484 388 C 617.218 388, 617 387.373, 617 386.606 C 617 385.839, 620.445 382.577, 624.656 379.356 C 631.178 374.367, 648.599 355.622, 671.920 328.500 L 674.500 325.500 671.500 328.080 C 644.378 351.401, 625.633 368.822, 620.644 375.344 C 617.423 379.555, 614.134 383, 613.335 383 C 611.554 383, 611.805 382.561, 619.085 372.936 C 622.798 368.027, 629.580 355.831, 638.403 338.193 C 645.882 323.245, 652 310.674, 651.999 310.257 C 651.999 309.841, 644.352 320.972, 635.006 334.992 C 623.073 352.895, 616.773 363.390, 613.847 370.242 C 611.315 376.172, 609.113 380, 608.233 380 C 607.437 380, 607.025 379.438, 607.318 378.750 C 614.179 362.621, 615.473 358.047, 621.075 330.125 C 624.334 313.883, 626.977 300.348, 626.948 300.047 C 626.919 299.746, 622.434 312.518, 616.979 328.428 C 609.207 351.102, 606.752 359.604, 605.625 367.752 C 604.833 373.469, 603.919 378.414, 603.593 378.740 C 601.997 380.336, 601.796 377.129, 602.914 367.904 C 603.943 359.419, 603.854 353.043, 602.367 328.393 C 601.392 312.227, 600.327 299, 600 299 C 599.673 299, 598.608 312.227, 597.633 328.393 M -0 666.502 L 0 800.002 600.250 799.751 L 1200.500 799.500 1200.754 666 L 1201.007 532.500 600.504 532.752 L -0 533.003 -0 666.502 M 0.486 666.500 C 0.486 740.200, 0.605 770.202, 0.750 733.172 C 0.895 696.142, 0.895 635.842, 0.750 599.172 C 0.605 562.502, 0.486 592.800, 0.486 666.500"/></svg>